<?xml version="1.0" encoding="UTF-8" standalone="no"?>
<!-- Created with Inkscape (http://www.inkscape.org/) -->

<svg
   xmlns:dc="http://purl.org/dc/elements/1.1/"
   xmlns:cc="http://creativecommons.org/ns#"
   xmlns:rdf="http://www.w3.org/1999/02/22-rdf-syntax-ns#"
   xmlns:svg="http://www.w3.org/2000/svg"
   xmlns="http://www.w3.org/2000/svg"
   xmlns:sodipodi="http://sodipodi.sourceforge.net/DTD/sodipodi-0.dtd"
   xmlns:inkscape="http://www.inkscape.org/namespaces/inkscape"
   width="64"
   height="64"
   viewBox="0 0 64.000001 64.000001"
   id="svg7322"
   version="1.1"
   inkscape:version="0.91 r13725"
   sodipodi:docname="selected_hide.svg"
   inkscape:export-filename="/Users/jonathanloov/Documents/Programmering/Rust/drawmetry/resources/selected_hide.png"
   inkscape:export-xdpi="90"
   inkscape:export-ydpi="90">
  <defs
     id="defs7324" />
  <sodipodi:namedview
     id="base"
     pagecolor="#ffffff"
     bordercolor="#666666"
     borderopacity="1.0"
     inkscape:pageopacity="0.0"
     inkscape:pageshadow="2"
     inkscape:zoom="5.6568542"
     inkscape:cx="20.756308"
     inkscape:cy="24.825541"
     inkscape:document-units="px"
     inkscape:current-layer="g4211"
     showgrid="false"
     units="px"
     showguides="true"
     inkscape:guide-bbox="true"
     inkscape:snap-midpoints="true"
     inkscape:object-paths="true"
     inkscape:object-nodes="true"
     inkscape:snap-smooth-nodes="true"
     inkscape:snap-intersection-paths="true"
     inkscape:window-width="957"
     inkscape:window-height="860"
     inkscape:window-x="0"
     inkscape:window-y="0"
     inkscape:window-maximized="0"
     inkscape:snap-page="true"
     inkscape:snap-center="false"
     inkscape:snap-bbox="true"
     inkscape:bbox-paths="true"
     inkscape:bbox-nodes="true">
    <sodipodi:guide
       position="0,32.000009"
       orientation="0,1"
       id="guide4151" />
    <sodipodi:guide
       position="32,47.999983"
       orientation="1,0"
       id="guide4157" />
  </sodipodi:namedview>
  <metadata
     id="metadata7327">
    <rdf:RDF>
      <cc:Work
         rdf:about="">
        <dc:format>image/svg+xml</dc:format>
        <dc:type
           rdf:resource="http://purl.org/dc/dcmitype/StillImage" />
        <dc:title></dc:title>
      </cc:Work>
    </rdf:RDF>
  </metadata>
  <g
     inkscape:label="Layer 1"
     inkscape:groupmode="layer"
     id="layer1"
     transform="translate(0,-988.3621)">
    <g
       id="g4211">
      <path
         style="color:#000000;font-style:normal;font-variant:normal;font-weight:normal;font-stretch:normal;font-size:medium;line-height:normal;font-family:sans-serif;text-indent:0;text-align:start;text-decoration:none;text-decoration-line:none;text-decoration-style:solid;text-decoration-color:#000000;letter-spacing:normal;word-spacing:normal;text-transform:none;direction:ltr;block-progression:tb;writing-mode:lr-tb;baseline-shift:baseline;text-anchor:start;white-space:normal;clip-rule:nonzero;display:inline;overflow:visible;visibility:visible;opacity:1;isolation:auto;mix-blend-mode:normal;color-interpolation:sRGB;color-interpolation-filters:linearRGB;solid-color:#000000;solid-opacity:1;fill:#000000;fill-opacity:1;fill-rule:nonzero;stroke:none;stroke-width:5;stroke-linecap:butt;stroke-linejoin:miter;stroke-miterlimit:4;stroke-dasharray:none;stroke-dashoffset:0;stroke-opacity:1;color-rendering:auto;image-rendering:auto;shape-rendering:auto;text-rendering:auto;enable-background:accumulate"
         d="M 32 14.839844 C 23.490476 14.839844 15.767825 16.535041 9.9746094 19.431641 C 4.1813935 22.328241 -1.1842379e-15 26.6487 0 32 C 0 37.3514 4.1813935 41.671759 9.9746094 44.568359 C 10.655676 44.908892 11.367066 45.23062 12.099609 45.537109 L 15.699219 41.9375 C 14.389241 41.477163 13.157027 40.974016 12.048828 40.419922 C 7.0995774 37.945222 4.6367188 34.845 4.6367188 32 C 4.6367188 29.1551 7.0995774 26.054678 12.048828 23.580078 C 16.998078 21.105478 24.117073 19.476562 32 19.476562 C 34.008851 19.476562 35.965206 19.586572 37.851562 19.785156 L 41.964844 15.671875 C 38.82353 15.137497 35.483408 14.839844 32 14.839844 z M 51.900391 18.464844 L 48.302734 22.0625 C 49.612044 22.522824 50.843468 23.026232 51.951172 23.580078 C 56.900423 26.054678 59.363281 29.1551 59.363281 32 C 59.363281 34.845 56.900423 37.945222 51.951172 40.419922 C 47.001921 42.894522 39.882927 44.521484 32 44.521484 C 29.991847 44.521484 28.036142 44.413111 26.150391 44.214844 L 22.037109 48.328125 C 25.177845 48.861907 28.517333 49.158203 32 49.158203 C 40.509524 49.158203 48.232175 47.464959 54.025391 44.568359 C 59.818607 41.671759 64 37.3514 64 32 C 64 26.6487 59.818607 22.328241 54.025391 19.431641 C 53.34456 19.091226 52.632663 18.771285 51.900391 18.464844 z "
         transform="translate(0,988.3621)"
         id="path4153" />
      <path
         style="color:#000000;font-style:normal;font-variant:normal;font-weight:normal;font-stretch:normal;font-size:medium;line-height:normal;font-family:sans-serif;text-indent:0;text-align:start;text-decoration:none;text-decoration-line:none;text-decoration-style:solid;text-decoration-color:#000000;letter-spacing:normal;word-spacing:normal;text-transform:none;direction:ltr;block-progression:tb;writing-mode:lr-tb;baseline-shift:baseline;text-anchor:start;white-space:normal;clip-rule:nonzero;display:inline;overflow:visible;visibility:visible;opacity:1;isolation:auto;mix-blend-mode:normal;color-interpolation:sRGB;color-interpolation-filters:linearRGB;solid-color:#000000;solid-opacity:1;fill:#000000;fill-opacity:1;fill-rule:nonzero;stroke:none;stroke-width:4.63768101;stroke-linecap:butt;stroke-linejoin:miter;stroke-miterlimit:4;stroke-dasharray:none;stroke-dashoffset:0;stroke-opacity:1;color-rendering:auto;image-rendering:auto;shape-rendering:auto;text-rendering:auto;enable-background:accumulate"
         d="M 32 14.841797 C 22.550572 14.841797 14.839833 22.5506 14.839844 32 C 14.83984 35.096915 15.678821 37.99855 17.125 40.511719 L 20.554688 37.082031 C 19.868214 35.529238 19.478514 33.814072 19.478516 32 C 19.478508 25.057 25.056963 19.478516 32 19.478516 C 33.81463 19.478516 35.531012 19.865846 37.083984 20.552734 L 40.509766 17.126953 C 37.997182 15.681958 35.095846 14.841797 32 14.841797 z M 46.875 23.490234 L 43.447266 26.917969 C 44.133073 28.469932 44.521486 30.186884 44.521484 32 C 44.521492 38.9431 38.943037 44.523438 32 44.523438 C 30.185998 44.523438 28.47052 44.133899 26.917969 43.447266 L 23.490234 46.875 C 26.002616 48.319959 28.904517 49.160156 32 49.160156 C 41.449428 49.160156 49.160167 41.4495 49.160156 32 C 49.16016 28.904163 48.320274 26.002534 46.875 23.490234 z "
         transform="translate(0,988.3621)"
         id="path4159" />
      <path
         style="fill:none;fill-rule:evenodd;stroke:#000000;stroke-width:5;stroke-linecap:round;stroke-linejoin:miter;stroke-miterlimit:4;stroke-dasharray:none;stroke-opacity:1"
         d="M 2.3397679,1050.0223 61.659381,990.70269"
         id="path4223"
         inkscape:connector-curvature="0" />
    </g>
  </g>
</svg>
